<svg width="209" height="210" viewBox="0 0 209 210" fill="none" xmlns="http://www.w3.org/2000/svg">
<circle cx="104.5" cy="105.5" r="104.5" fill="black"/>
<mask id="mask0_291_358" style="mask-type:alpha" maskUnits="userSpaceOnUse" x="0" y="1" width="209" height="209">
<circle cx="104.5" cy="105.5" r="104.5" fill="black"/>
</mask>
<g mask="url(#mask0_291_358)">
<path d="M188 197.5H188.558L188.497 196.945L167.705 7.94532L167.656 7.5H167.208H157.782H157.424L157.309 7.83881L103.998 164.373L50.1362 7.83732L50.0201 7.5H49.6634H40.2376H39.7883L39.7405 7.94677L19.5028 196.947L19.4436 197.5H20H26.099H26.5495L26.5963 197.052L36.8535 98.8075L36.8537 98.8052L42.1208 50.5169C43.4145 38.6753 44.3849 29.7011 45.0319 23.5945C45.3553 20.5414 45.598 18.2043 45.7599 16.5838C45.773 16.4529 45.7856 16.3263 45.7976 16.2042L100.428 174.163L100.545 174.5H100.901H107H107.358L107.473 174.161L161.408 16.1244L170.592 101.305L170.592 101.307L181.404 197.056L181.454 197.5H181.901H188Z" fill="white" stroke="white"/>
<path d="M107.564 -9V-9.5H107.064H101H100.5V-9V174V174.5H101H181.945H182.485L182.444 173.962L181.999 168.179L181.963 167.717H181.5H107.564V-9Z" fill="white" stroke="white"/>
</g>
</svg>
