<svg width="209" height="210" viewBox="0 0 209 210" fill="none" xmlns="http://www.w3.org/2000/svg">
<circle cx="104.5" cy="105.5" r="104.5" fill="black"/>
<mask id="mask0_291_358" style="mask-type:alpha" maskUnits="userSpaceOnUse" x="0" y="1" width="209" height="209">
<circle cx="104.5" cy="105.5" r="104.5" fill="black"/>
</mask>
<g mask="url(#mask0_291_358)">
<path d="M188 198.5H189.674L189.491 196.836L168.699 7.83597L168.552 6.5H167.208H157.782H156.708L156.362 7.51642L103.993 161.285L51.0817 7.51196L50.7335 6.5H49.6634H40.2376H38.8897L38.7461 7.8403L18.5085 196.84L18.3308 198.5H20H26.099H27.4506L27.5909 197.156L37.8476 98.916L37.8483 98.9091L43.1149 50.6255C44.4087 38.7836 45.3792 29.8081 46.0263 23.6999C46.1374 22.651 46.239 21.6865 46.3311 20.8062L99.4834 174.49L99.8326 175.5H100.901H107H108.073L108.42 174.484L160.897 20.7168L169.598 101.412L169.599 101.419L180.41 197.168L180.561 198.5H181.901H188Z" fill="white" stroke="white" stroke-width="3"/>
<path d="M108.564 -9V-10.5H107.064H101H99.5V-9V174V175.5H101H181.945H183.565L183.441 173.885L182.996 168.102L182.889 166.717H181.5H108.564V-9Z" fill="white" stroke="white" stroke-width="3"/>
</g>
</svg>
